<?xml version="1.0" encoding="UTF-8"?>
<svg width="50px" height="50px" viewBox="0 0 50 50" version="1.1" xmlns="http://www.w3.org/2000/svg" xmlns:xlink="http://www.w3.org/1999/xlink">
    <!-- Generator: Sketch 56.2 (81672) - https://sketch.com -->
    <title>html 2</title>
    <desc>Created with Sketch.</desc>
    <g id="Page-1" stroke="none" stroke-width="1" fill="none" fill-rule="evenodd" stroke-linejoin="round">
        <g id="LP-Freeelance-(M)" transform="translate(-162.000000, -1887.000000)" fill="#FFFFFF" fill-rule="nonzero" stroke="#16BD31" stroke-width="0.2">
            <g id="Group-4" transform="translate(15.000000, 1662.000000)">
                <g id="Group-3-Copy" transform="translate(0.000000, 146.000000)">
                    <g id="Group-2" transform="translate(124.000000, 56.000000)">
                        <g id="html-2" transform="translate(24.000000, 24.000000)">
                            <g id="html">
                                <path d="M3.19829424,35.1812367 C1.43203625,35.1812367 0,33.7492004 0,31.9829424 L0,3.19829424 C0,1.43203625 1.43203625,0 3.19829424,0 L38.3795309,0 C40.1457889,0 41.5778252,1.43203625 41.5778252,3.19829424 L41.5778252,4.79744136 L39.978678,4.79744136 L39.978678,3.19829424 C39.978678,2.31496534 39.2628598,1.59914712 38.3795309,1.59914712 L3.19829424,1.59914712 C2.31496534,1.59914712 1.59914712,2.31496534 1.59914712,3.19829424 L1.59914712,31.9829424 C1.59914712,32.8662713 2.31496534,33.5820896 3.19829424,33.5820896 L4.79744136,33.5820896 L4.79744136,35.1812367 L3.19829424,35.1812367 Z M3.19829424,3.19829424 L4.79744136,3.19829424 L4.79744136,4.79744136 L3.19829424,4.79744136 L3.19829424,3.19829424 Z M6.39658849,3.19829424 L7.99573561,3.19829424 L7.99573561,4.79744136 L6.39658849,4.79744136 L6.39658849,3.19829424 Z M9.59488273,3.19829424 L11.1940299,3.19829424 L11.1940299,4.79744136 L9.59488273,4.79744136 L9.59488273,3.19829424 Z M44.7761194,6.39658849 C46.5423774,6.39658849 47.9744136,7.82862473 47.9744136,9.59488273 L47.9744136,38.3795309 C47.9744136,40.1457889 46.5423774,41.5778252 44.7761194,41.5778252 L9.59488273,41.5778252 C7.82862473,41.5778252 6.39658849,40.1457889 6.39658849,38.3795309 L6.39658849,9.59488273 C6.39658849,7.82862473 7.82862473,6.39658849 9.59488273,6.39658849 L44.7761194,6.39658849 Z M46.3752665,38.3795309 L46.3752665,9.59488273 C46.3752665,8.71155383 45.6594483,7.99573561 44.7761194,7.99573561 L9.59488273,7.99573561 C8.71155383,7.99573561 7.99573561,8.71155383 7.99573561,9.59488273 L7.99573561,38.3795309 C7.99573561,39.2628598 8.71155383,39.978678 9.59488273,39.978678 L44.7761194,39.978678 C45.6594483,39.978678 46.3752665,39.2628598 46.3752665,38.3795309 Z M9.59488273,9.59488273 L11.1940299,9.59488273 L11.1940299,11.1940299 L9.59488273,11.1940299 L9.59488273,9.59488273 Z M12.793177,9.59488273 L14.3923241,9.59488273 L14.3923241,11.1940299 L12.793177,11.1940299 L12.793177,9.59488273 Z M15.9914712,9.59488273 L17.5906183,9.59488273 L17.5906183,11.1940299 L15.9914712,11.1940299 L15.9914712,9.59488273 Z M9.59488273,12.793177 L44.7761194,12.793177 L44.7761194,14.3923241 L9.59488273,14.3923241 L9.59488273,12.793177 Z M11.1940299,26.3859275 L15.9914712,26.3859275 L15.9914712,27.9850746 L11.1940299,27.9850746 L11.1940299,26.3859275 Z M11.1940299,30.3837953 L27.9850746,30.3837953 L27.9850746,31.9829424 L11.1940299,31.9829424 L11.1940299,30.3837953 Z M11.1940299,34.3816631 L19.989339,34.3816631 L19.989339,35.9808102 L11.1940299,35.9808102 L11.1940299,34.3816631 Z M25.5863539,22.3880597 L33.5820896,22.3880597 L33.5820896,23.9872068 L25.5863539,23.9872068 L25.5863539,22.3880597 Z M37.5799574,30.3837953 L43.1769723,30.3837953 L43.1769723,31.9829424 L37.5799574,31.9829424 L37.5799574,30.3837953 Z M30.3837953,34.3816631 L43.1769723,34.3816631 L43.1769723,35.9808102 L30.3837953,35.9808102 L30.3837953,34.3816631 Z M18.3901919,26.3859275 L30.3837953,26.3859275 L30.3837953,27.9850746 L18.3901919,27.9850746 L18.3901919,26.3859275 Z M25.5863539,18.3901919 L31.1833689,18.3901919 L31.1833689,19.989339 L25.5863539,19.989339 L25.5863539,18.3901919 Z M32.782516,18.3901919 L43.1769723,18.3901919 L43.1769723,19.989339 L32.782516,19.989339 L32.782516,18.3901919 Z M21.5884861,34.3816631 L28.7846482,34.3816631 L28.7846482,35.9808102 L21.5884861,35.9808102 L21.5884861,34.3816631 Z M31.9829424,26.3859275 L43.1769723,26.3859275 L43.1769723,27.9850746 L31.9829424,27.9850746 L31.9829424,26.3859275 Z M35.1812367,22.3880597 L43.1769723,22.3880597 L43.1769723,23.9872068 L35.1812367,23.9872068 L35.1812367,22.3880597 Z M29.5842217,30.3837953 L35.9808102,30.3837953 L35.9808102,31.9829424 L29.5842217,31.9829424 L29.5842217,30.3837953 Z M13.8270256,17.8248934 L14.9576226,18.9554904 L13.1242004,20.7889126 L14.9576226,22.6223348 L13.8270256,23.7529318 L11.4283049,21.3542111 C11.1162713,21.0417777 11.1162713,20.5360475 11.4283049,20.2236141 L13.8270256,17.8248934 Z M21.3542111,23.7529318 L20.2236141,22.6223348 L22.0570362,20.7889126 L20.2236141,18.9554904 L21.3542111,17.8248934 L23.7529318,20.2236141 C24.0649653,20.5360475 24.0649653,21.0417777 23.7529318,21.3542111 L21.3542111,23.7529318 Z M16.0150587,23.7935101 L17.6150053,17.3969217 L19.1659781,17.7849147 L17.5658316,24.1811034 L16.0150587,23.7935101 Z M35.9808102,43.1769723 C37.3053038,43.1769723 38.3795309,44.2511994 38.3795309,45.575693 C38.3795309,46.9001865 37.3053038,47.9744136 35.9808102,47.9744136 L18.3901919,47.9744136 C18.178105,47.9744136 17.9748134,47.8900586 17.8248934,47.7401386 L16.2257463,46.1409915 C15.9137127,45.8285581 15.9137127,45.3228278 16.2257463,45.0103945 L17.8248934,43.4112473 C17.9748134,43.2613273 18.178105,43.1769723 18.3901919,43.1769723 L35.9808102,43.1769723 Z M33.5820896,46.3752665 L33.5820896,44.7761194 L18.7212154,44.7761194 L17.9216418,45.575693 L18.7212154,46.3752665 L33.5820896,46.3752665 Z M35.9808102,46.3752665 C36.4225746,46.3752665 36.7803838,46.0174573 36.7803838,45.575693 C36.7803838,45.1339286 36.4225746,44.7761194 35.9808102,44.7761194 L35.1812367,44.7761194 L35.1812367,46.3752665 L35.9808102,46.3752665 Z" id="Combined-Shape"></path>
                            </g>
                        </g>
                    </g>
                </g>
            </g>
        </g>
    </g>
</svg>