<?xml version="1.0" encoding="UTF-8"?>
<svg width="46px" height="50px" viewBox="0 0 46 50" version="1.1" xmlns="http://www.w3.org/2000/svg" xmlns:xlink="http://www.w3.org/1999/xlink">
    <!-- Generator: Sketch 56.2 (81672) - https://sketch.com -->
    <title>Combined Shape 4</title>
    <desc>Created with Sketch.</desc>
    <g id="Page-1" stroke="none" stroke-width="1" fill="none" fill-rule="evenodd" stroke-linejoin="round">
        <g id="LP-Freeelance-(M)" transform="translate(-164.000000, -2943.000000)" fill="#FFFFFF" fill-rule="nonzero" stroke="#16BD31" stroke-width="0.2">
            <g id="Group-4" transform="translate(15.000000, 1662.000000)">
                <g id="Group-3-Copy-11" transform="translate(0.000000, 1202.000000)">
                    <g id="Group-2" transform="translate(124.000000, 56.000000)">
                        <g id="Combined-Shape-4" transform="translate(26.000000, 24.000000)">
                            <path d="M16.9467803,32.3435291 L16.9467803,35.0505216 C18.3931892,35.4209199 19.4648369,36.7254929 19.4648369,38.2734068 C19.4648369,40.1084935 17.9586751,41.6015735 16.1075101,41.6015735 C14.256345,41.6015735 12.7501833,40.1084935 12.7501833,38.2734068 C12.7501833,36.7254929 13.821831,35.4209199 15.2682399,35.0505216 L15.2682399,32.3435291 C13.821831,31.9731308 12.7501833,30.6685578 12.7501833,29.1206439 C12.7501833,27.57273 13.821831,26.268157 15.2682399,25.8977587 L15.2682399,22.4640669 L10.9649471,22.4640669 C10.5913035,23.8979129 9.27530032,24.9602528 7.71382415,24.9602528 C5.8626591,24.9602528 4.35649731,23.4671728 4.35649731,21.6320862 C4.35649731,19.7969995 5.8626591,18.3039195 7.71382415,18.3039195 C9.27530032,18.3039195 10.5914785,19.3662595 10.9650293,20.8001054 L12.7501833,20.8001054 L12.7501833,14.038247 C11.3037744,13.6678487 10.2321267,12.3632757 10.2321267,10.8153618 C10.2321267,8.98027512 11.7382884,7.48719517 13.5894535,7.48719517 C15.4406185,7.48719517 16.9467803,8.98027512 16.9467803,10.8153618 C16.9467803,12.3632757 15.8751326,13.6678487 14.4287237,14.038247 L14.4287237,20.8001054 L16.1075101,20.8001054 C16.2802928,20.8001054 16.4409331,20.8519487 16.5744425,20.9407892 C16.7989365,21.0901399 16.9467803,21.3440991 16.9467803,21.6320862 L16.9467803,25.8977587 C18.3931892,26.268157 19.4648369,27.57273 19.4648369,29.1206439 C19.4648369,30.6685578 18.3931892,31.9731308 16.9467803,32.3435291 Z M30.4491541,3.93433972 L28.9316478,5.95559985 C28.767138,6.17572249 28.5141028,6.2912686 28.257625,6.2912686 C28.0830332,6.2912686 27.9077037,6.23788337 27.7574563,6.12648132 C27.3856495,5.85199838 27.3084357,5.3305783 27.5850776,4.96248838 L29.1285725,2.90661266 C27.6924713,1.80712053 26.2296096,1.43416702 24.7682477,1.79618381 C23.8456421,2.02478884 23.1534532,2.4959104 22.8233933,2.75594959 L22.8233933,43.2885247 C23.952157,45.2913129 25.1724455,46.3164689 26.4514604,46.3363466 C26.4640015,46.3363466 26.4767885,46.3363466 26.4888378,46.3363466 C28.6604157,46.3363466 30.8305182,43.4717627 31.4868359,42.3613988 C31.6127387,42.1483454 31.8276588,42.0011095 32.0735627,41.9606439 C33.176442,41.7785491 33.9463673,41.3400102 34.3604696,40.6577032 C35.1244932,39.4005908 34.5586682,37.6193769 34.5527665,37.6015818 C34.4145685,37.1910762 34.6169474,36.7442492 35.0185086,36.5736115 C38.4672418,35.1085964 38.7584034,31.9244197 38.6319529,30.1807109 C37.6664559,30.7198202 36.7267313,30.9903456 35.8208932,30.9903456 C35.4003975,30.9903456 34.9870329,30.9320851 34.5815373,30.8150763 C31.8625771,30.0313617 30.6583854,26.8745641 30.6084669,26.7404916 C30.4476457,26.3095095 30.6701888,25.8307489 31.104947,25.671812 C31.5379839,25.5119001 32.0211852,25.7320228 32.1822523,26.1622736 C32.1913507,26.1876254 33.1511139,28.6750357 35.0561319,29.2188825 C36.1253224,29.524324 37.3622193,29.156234 38.7299371,28.1231446 C38.7912492,28.0768518 38.8568776,28.0401984 38.9249856,28.0129302 C41.481311,26.2780313 42.6037731,24.0226053 42.2616099,21.3078745 C41.99505,19.1948921 40.9361875,17.6001609 40.9253677,17.5843159 C40.8220881,17.430742 40.7733991,17.2471846 40.786432,17.0633834 C41.0596313,13.2698634 40.392002,10.4767678 38.8017411,8.76137132 C37.4545459,7.30841218 35.8577406,7.10287902 35.4433037,7.07370007 C31.5415398,8.43487328 31.4531212,11.5516577 31.4509339,11.6853703 C31.4447863,12.1402417 31.0702745,12.5088192 30.6116636,12.5088192 C30.6099423,12.5088192 30.6079751,12.5088192 30.605762,12.5088192 C30.144692,12.505894 29.7723934,12.1370727 29.7723934,11.6797637 C29.7723934,11.5072772 29.8258754,7.6586223 34.1979052,5.77150052 C32.9268997,3.54231574 31.0660381,3.88451339 30.8388789,3.93622445 C30.7092294,3.96525668 30.5755553,3.96385525 30.4491541,3.93433972 Z M28.3880991,34.4413465 C28.8298418,34.2714326 29.30935,34.1729827 29.8274759,34.1729827 C30.290759,34.1729827 30.666992,34.5457042 30.666992,35.0049634 C30.666992,35.4642226 30.2910049,35.8369441 29.8277218,35.8369441 C27.7604072,35.8369441 26.3041639,38.7943394 25.9176029,39.9339555 C25.799569,40.2823002 25.4722708,40.5019353 25.1213658,40.5019353 C25.0333322,40.5019353 24.9433314,40.4882843 24.8552977,40.4587883 C24.4158673,40.3127712 24.17857,39.8427862 24.3251288,39.4071725 C24.3718516,39.2679042 25.1209565,37.0936691 26.6579437,35.5917404 C26.6583727,35.5899437 26.6588078,35.5881471 26.6592492,35.5863505 C26.6882659,35.46276 27.2535991,32.8524906 24.5282455,30.1508081 C24.2004555,29.8261089 24.2004555,29.299326 24.5282455,28.974383 C24.8555436,28.64944 25.3876798,28.64944 25.714978,28.974383 C27.778801,31.0202806 28.3048878,33.0866078 28.3880991,34.4413465 Z M27.0655918,14.8002938 C26.6371134,15.9962066 26.0351735,17.2077418 25.1897271,18.2705233 C25.0244797,18.4789451 24.7785757,18.5874219 24.5304586,18.5874219 C24.3482438,18.5874219 24.1652912,18.5291613 24.0113553,18.4084961 C23.6469257,18.1240186 23.5849579,17.6008922 23.8719278,17.2398715 C26.4888378,13.9497327 26.4430996,8.76185885 26.4423619,8.70993624 C26.4357225,8.25067703 26.805808,7.87234885 27.2695829,7.86576711 C27.7471284,7.85382247 28.1145089,8.22654398 28.1211483,8.68580319 C28.1230283,8.82500328 28.1402165,10.818873 27.5475323,13.2002891 C28.6106114,13.5245576 28.9981043,14.5440225 29.4057506,15.614913 C29.7871477,16.6170439 30.2614964,17.8644055 31.3656052,19.3209203 C33.4911991,22.1254729 37.4932861,20.7381883 37.6632057,20.6779776 C38.0984558,20.5226973 38.5796898,20.7457451 38.7375602,21.1767272 C38.8954305,21.6079531 38.6721497,22.0842761 38.2373915,22.2415065 C38.1309151,22.2795344 36.837952,22.734162 35.2090842,22.734162 C33.5266092,22.734162 31.4860981,22.2495509 30.0234614,20.3198822 C28.7754987,18.6732283 28.232051,17.2447469 27.8349161,16.201663 C27.4590122,15.2138013 27.3020842,14.898153 27.0655918,14.8002938 Z M21.1448528,43.3415616 L21.1448528,2.73208656 C20.7953248,2.46179632 20.0926252,1.99680421 19.167539,1.78131395 C17.4130142,1.37275852 15.6575058,2.02288819 13.9494569,3.7153705 C13.7409303,3.92232966 13.4387144,4.00496707 13.1524821,3.9342743 C13.0937111,3.92062329 12.9156766,3.88600821 12.6631332,3.88600821 C11.8782078,3.88600821 10.3688493,4.21850797 9.42949611,6.54576255 C9.30187195,6.86144231 8.99350838,7.06864524 8.65022645,7.06864524 C8.57768478,7.06962032 6.72676563,7.11203598 5.19748887,8.76112755 C3.60698203,10.4765241 2.93910686,13.2693758 3.21279797,17.0631396 C3.22583088,17.2471846 3.1771419,17.4304982 3.07386223,17.5840722 C2.90271307,17.84076 -1.06765234,23.9547091 5.19404622,28.0929174 C5.48913098,28.2881756 5.62880443,28.6460273 5.54273804,28.9870589 C5.48716374,29.2118132 4.22690592,34.5539923 8.98022957,36.5733677 C9.38179074,36.7440054 9.5836779,37.1908324 9.44597168,37.601338 C9.44080769,37.6169392 8.86858917,39.400347 9.64195714,40.6642849 C10.057043,41.3424479 10.825247,41.7787929 11.9246836,41.9606439 C12.1700958,42.0011095 12.3855077,42.1483454 12.5114105,42.3613988 C13.1716626,43.4783445 15.372749,46.3706536 17.546786,46.3363466 C18.8149393,46.3166451 20.0249395,45.3094107 21.1448528,43.3415596 Z M43.9281011,21.1009153 C44.2138415,23.3664966 43.7783455,26.5608345 40.205115,29.1528213 C40.6192173,31.5758768 40.2272464,35.7469937 36.3230291,37.7980589 C36.4848339,38.6792808 36.5927858,40.2084384 35.7987619,41.5152795 C35.1749035,42.5434936 34.1435823,43.2194627 32.7306181,43.5285607 C32.0125785,44.6267363 29.5218173,48.0443658 26.4305585,47.9995125 C24.7859528,47.9761107 23.2994633,47.0117639 21.999615,45.1301175 C20.7002584,47.0122514 19.213769,47.9761107 17.5686714,47.9995125 C17.549245,48 17.5293268,48 17.5099004,48 C14.4412648,48 11.9822252,44.6199108 11.2688578,43.5285607 C9.85589359,43.2194627 8.82481826,42.5432498 8.200714,41.5152795 C7.406936,40.2084384 7.51439603,38.6795246 7.67644674,37.7980589 C3.7727213,35.7469937 3.38075038,31.5758768 3.79485266,29.1528213 C0.221868047,26.5608345 -0.213381971,23.3662528 0.0716207247,21.1009153 C0.323918193,19.1017727 1.16613927,17.5092353 1.51999508,16.9127347 C1.26400905,12.7533186 2.09541036,9.62138537 3.99354306,7.60079113 C5.47290131,6.02556131 7.20111438,5.57995312 8.07874563,5.45441252 C9.4167091,2.64961612 11.6910749,2.10650067 13.0755142,2.23886678 C15.6648829,-0.152255057 18.0599876,-0.209296805 19.6384451,0.181707316 C20.6791107,0.439614025 21.4945282,0.922518741 21.9998609,1.28743967 C22.5054394,0.923006277 23.3203652,0.439614025 24.3612767,0.181707316 C25.9397342,-0.208565501 28.3348388,-0.15176752 30.9242076,2.23886678 C32.3071715,2.10698821 34.5825209,2.64961612 35.9209762,5.45441252 C36.7986074,5.58019689 38.5268205,6.02580508 40.0061787,7.60079113 C41.9038196,9.62138537 42.7357127,12.7533186 42.4797267,16.9127347 C42.8335825,17.5097229 43.6762954,19.1017727 43.9281011,21.1009153 Z M13.5894535,12.479567 C14.515036,12.479567 15.2679939,11.7331489 15.2682399,10.8153618 C15.2682399,9.89757469 14.5152819,9.1511566 13.5894535,9.1511566 C12.6636251,9.1511566 11.9106671,9.89757469 11.9106671,10.8153618 C11.9106671,11.7331489 12.6636251,12.479567 13.5894535,12.479567 Z M7.71382415,23.2962914 C8.63965257,23.2962914 9.39261052,22.5498733 9.39261052,21.6320862 C9.39261052,20.7142991 8.63965257,19.967881 7.71382415,19.967881 C6.78799572,19.967881 6.03503778,20.7142991 6.03503778,21.6320862 C6.03503778,22.5498733 6.78799572,23.2962914 7.71382415,23.2962914 Z M16.1075101,30.7848491 C17.0330926,30.7848491 17.7862965,30.038431 17.7862965,29.1206439 C17.7862965,28.2028568 17.0333385,27.4564387 16.1075101,27.4564387 C15.1816817,27.4564387 14.4287237,28.2028568 14.4287237,29.1206439 C14.4287237,30.038431 15.1816817,30.7848491 16.1075101,30.7848491 Z M16.1075101,39.937612 C17.0330926,39.937612 17.7860506,39.1911939 17.7862965,38.2734068 C17.7862965,37.3556197 17.0333385,36.6092016 16.1075101,36.6092016 C15.1816817,36.6092016 14.4287237,37.3556197 14.4287237,38.2734068 C14.4287237,39.1911939 15.1816817,39.937612 16.1075101,39.937612 Z" id="Combined-Shape"></path>
                        </g>
                    </g>
                </g>
            </g>
        </g>
    </g>
</svg>