<?xml version="1.0" encoding="UTF-8"?>
<svg width="50px" height="50px" viewBox="0 0 50 50" version="1.1" xmlns="http://www.w3.org/2000/svg" xmlns:xlink="http://www.w3.org/1999/xlink">
    <!-- Generator: Sketch 56.2 (81672) - https://sketch.com -->
    <title>booking</title>
    <desc>Created with Sketch.</desc>
    <g id="Page-1" stroke="none" stroke-width="1" fill="none" fill-rule="evenodd" stroke-linejoin="round">
        <g id="LP-Freeelance-(M)" transform="translate(-162.000000, -3295.000000)" fill="#FFFFFF" fill-rule="nonzero" stroke="#16BD31" stroke-width="0.2">
            <g id="Group-4" transform="translate(15.000000, 1662.000000)">
                <g id="Group-3-Copy-12" transform="translate(0.000000, 1554.000000)">
                    <g id="Group-2" transform="translate(124.000000, 56.000000)">
                        <g id="booking" transform="translate(24.000000, 24.000000)">
                            <path d="M44,6.4 C46.2056,6.4 48,8.1944 48,10.4 L48,44 C48,46.2056 46.2056,48 44,48 L4,48 C1.7944,48 0,46.2056 0,44 L0,10.4 C0,8.1944 1.7944,6.4 4,6.4 L4.8,6.4 L4.8,2.4 C4.8,1.0768 5.8768,0 7.2,0 L8.8,0 C10.1232,0 11.2,1.0768 11.2,2.4 L11.2,6.4 L36.8,6.4 L36.8,2.4 C36.8,1.0768 37.8768,0 39.2,0 L40.8,0 C42.1232,0 43.2,1.0768 43.2,2.4 L43.2,6.4 L44,6.4 Z M38.4,7.2 L38.4,10.4 C38.4,10.8416 38.7584,11.2 39.2,11.2 L40.8,11.2 C41.2416,11.2 41.6,10.8416 41.6,10.4 L41.6,7.2 L41.6,2.4 C41.6,1.9584 41.2416,1.6 40.8,1.6 L39.2,1.6 C38.7584,1.6 38.4,1.9584 38.4,2.4 L38.4,7.2 Z M6.4,7.2 L6.4,10.4 C6.4,10.8416 6.7584,11.2 7.2,11.2 L8.8,11.2 C9.2416,11.2 9.6,10.8416 9.6,10.4 L9.6,7.2 L9.6,2.4 C9.6,1.9584 9.2416,1.6 8.8,1.6 L7.2,1.6 C6.7584,1.6 6.4,1.9584 6.4,2.4 L6.4,7.2 Z M46.4,44 L46.4,20.8 L1.6,20.8 L1.6,44 C1.6,45.3232 2.6768,46.4 4,46.4 L44,46.4 C45.3232,46.4 46.4,45.3232 46.4,44 Z M46.4,19.2 L46.4,10.4 C46.4,9.0768 45.3232,8 44,8 L43.2,8 L43.2,10.4 C43.2,11.7232 42.1232,12.8 40.8,12.8 L39.2,12.8 C37.8768,12.8 36.8,11.7232 36.8,10.4 L36.8,8 L11.2,8 L11.2,10.4 C11.2,11.7232 10.1232,12.8 8.8,12.8 L7.2,12.8 C5.8768,12.8 4.8,11.7232 4.8,10.4 L4.8,8 L4,8 C2.6768,8 1.6,9.0768 1.6,10.4 L1.6,19.2 L46.4,19.2 Z M32.8,10.4 C33.2424,10.4 33.6,10.7576 33.6,11.2 L33.6,16 C33.6,16.4424 33.2424,16.8 32.8,16.8 L15.2,16.8 C14.7576,16.8 14.4,16.4424 14.4,16 L14.4,11.2 C14.4,10.7576 14.7576,10.4 15.2,10.4 L32.8,10.4 Z M32,15.2 L32,12 L16,12 L16,15.2 L32,15.2 Z M10.4,23.2 C10.8424,23.2 11.2,23.5576 11.2,24 L11.2,28 C11.2,28.4424 10.8424,28.8 10.4,28.8 L5.6,28.8 C5.1576,28.8 4.8,28.4424 4.8,28 L4.8,24 C4.8,23.5576 5.1576,23.2 5.6,23.2 L10.4,23.2 Z M9.6,27.2 L9.6,24.8 L6.4,24.8 L6.4,27.2 L9.6,27.2 Z M20.8,23.2 C21.2424,23.2 21.6,23.5576 21.6,24 L21.6,28 C21.6,28.4424 21.2424,28.8 20.8,28.8 L16,28.8 C15.5576,28.8 15.2,28.4424 15.2,28 L15.2,24 C15.2,23.5576 15.5576,23.2 16,23.2 L20.8,23.2 Z M20,27.2 L20,24.8 L16.8,24.8 L16.8,27.2 L20,27.2 Z M32,23.2 C32.4424,23.2 32.8,23.5576 32.8,24 L32.8,28 C32.8,28.4424 32.4424,28.8 32,28.8 L27.2,28.8 C26.7576,28.8 26.4,28.4424 26.4,28 L26.4,24 C26.4,23.5576 26.7576,23.2 27.2,23.2 L32,23.2 Z M31.2,27.2 L31.2,24.8 L28,24.8 L28,27.2 L31.2,27.2 Z M42.4,23.2 C42.8424,23.2 43.2,23.5576 43.2,24 L43.2,28 C43.2,28.4424 42.8424,28.8 42.4,28.8 L37.6,28.8 C37.1576,28.8 36.8,28.4424 36.8,28 L36.8,24 C36.8,23.5576 37.1576,23.2 37.6,23.2 L42.4,23.2 Z M41.6,27.2 L41.6,24.8 L38.4,24.8 L38.4,27.2 L41.6,27.2 Z M10.4,31.2 C10.8424,31.2 11.2,31.5576 11.2,32 L11.2,36 C11.2,36.4424 10.8424,36.8 10.4,36.8 L5.6,36.8 C5.1576,36.8 4.8,36.4424 4.8,36 L4.8,32 C4.8,31.5576 5.1576,31.2 5.6,31.2 L10.4,31.2 Z M9.6,35.2 L9.6,32.8 L6.4,32.8 L6.4,35.2 L9.6,35.2 Z M20.8,31.2 C21.2424,31.2 21.6,31.5576 21.6,32 L21.6,36 C21.6,36.4424 21.2424,36.8 20.8,36.8 L16,36.8 C15.5576,36.8 15.2,36.4424 15.2,36 L15.2,32 C15.2,31.5576 15.5576,31.2 16,31.2 L20.8,31.2 Z M20,35.2 L20,32.8 L16.8,32.8 L16.8,35.2 L20,35.2 Z M32,31.2 C32.4424,31.2 32.8,31.5576 32.8,32 L32.8,36 C32.8,36.4424 32.4424,36.8 32,36.8 L27.2,36.8 C26.7576,36.8 26.4,36.4424 26.4,36 L26.4,32 C26.4,31.5576 26.7576,31.2 27.2,31.2 L32,31.2 Z M31.2,35.2 L31.2,32.8 L28,32.8 L28,35.2 L31.2,35.2 Z M42.4,31.2 C42.8424,31.2 43.2,31.5576 43.2,32 L43.2,36 C43.2,36.4424 42.8424,36.8 42.4,36.8 L37.6,36.8 C37.1576,36.8 36.8,36.4424 36.8,36 L36.8,32 C36.8,31.5576 37.1576,31.2 37.6,31.2 L42.4,31.2 Z M41.6,35.2 L41.6,32.8 L38.4,32.8 L38.4,35.2 L41.6,35.2 Z M10.4,39.2 C10.8424,39.2 11.2,39.5576 11.2,40 L11.2,44 C11.2,44.4424 10.8424,44.8 10.4,44.8 L5.6,44.8 C5.1576,44.8 4.8,44.4424 4.8,44 L4.8,40 C4.8,39.5576 5.1576,39.2 5.6,39.2 L10.4,39.2 Z M9.6,43.2 L9.6,40.8 L6.4,40.8 L6.4,43.2 L9.6,43.2 Z M20.8,39.2 C21.2424,39.2 21.6,39.5576 21.6,40 L21.6,44 C21.6,44.4424 21.2424,44.8 20.8,44.8 L16,44.8 C15.5576,44.8 15.2,44.4424 15.2,44 L15.2,40 C15.2,39.5576 15.5576,39.2 16,39.2 L20.8,39.2 Z M20,43.2 L20,40.8 L16.8,40.8 L16.8,43.2 L20,43.2 Z M32.1856,38.688 L33.4152,39.7128 L29.4152,44.5128 C29.2704,44.6848 29.0608,44.7888 28.836,44.7992 C28.824,44.8 28.812,44.8 28.8,44.8 C28.588,44.8 28.384,44.7168 28.2344,44.5656 L25.8344,42.1656 L26.9656,41.0344 L28.7464,42.8152 L32.1856,38.688 Z M41.7856,38.688 L43.0152,39.7128 L39.0152,44.5128 C38.8704,44.6848 38.6608,44.7888 38.436,44.7992 C38.424,44.8 38.412,44.8 38.4,44.8 C38.188,44.8 37.984,44.7168 37.8344,44.5656 L35.4344,42.1656 L36.5656,41.0344 L38.3464,42.8152 L41.7856,38.688 Z" id="Combined-Shape"></path>
                        </g>
                    </g>
                </g>
            </g>
        </g>
    </g>
</svg>