<svg width="327px" height="327px" viewBox="0 0 327 327" version="1.1" xmlns="http://www.w3.org/2000/svg" xmlns:xlink="http://www.w3.org/1999/xlink">
    <g stroke="none" stroke-width="1" fill="none" fill-rule="evenodd" stroke-linejoin="round">
        <g transform="translate(4.000000, 4.000000)" fill-rule="nonzero" stroke="#313131" stroke-width="8">
            <path d="M15.9556923,41.7830348 C5.92188179,39.2118266 -0.790224753,29.7732527 0.0748911666,19.4514292 C0.940007086,9.12960574 9.12960574,0.940007086 19.4514292,0.0748911666 C29.7732527,-0.790224753 39.2118266,5.92188179 41.7830348,15.9556923 L277.216965,15.9556923 C279.788173,5.92188179 289.226747,-0.790224753 299.548571,0.0748911666 C309.870394,0.940007086 318.059993,9.12960574 318.925109,19.4514292 C319.790225,29.7732527 313.078118,39.2118266 303.044308,41.7830348 L303.044308,277.216965 C313.078118,279.788173 319.790225,289.226747 318.925109,299.548571 C318.059993,309.870394 309.870394,318.059993 299.548571,318.925109 C289.226747,319.790225 279.788173,313.078118 277.216965,303.044308 L164.816456,303.044308 L164.816456,292.411396 L277.216965,292.411396 C279.162205,284.972002 284.972002,279.162205 292.411396,277.216965 L292.411396,41.7830348 C284.972002,39.8377947 279.162205,34.0279979 277.216965,26.588604 L41.7830348,26.588604 C39.8377947,34.0279979 34.0279979,39.8377947 26.588604,41.7830348 L26.588604,154.183544 L15.9556923,154.183544 L15.9556923,41.7830348 Z M308.360763,297.727852 C308.360763,291.855457 303.600247,287.09494 297.727852,287.09494 C291.855457,287.09494 287.09494,291.855457 287.09494,297.727852 C287.09494,303.600247 291.855457,308.360763 297.727852,308.360763 C303.600247,308.360763 308.360763,303.600247 308.360763,297.727852 Z M297.727852,10.6392365 C291.855457,10.6392365 287.09494,15.3997532 287.09494,21.2721482 C287.09494,27.1445431 291.855457,31.9050599 297.727852,31.9050599 C303.600247,31.9050599 308.360763,27.1445431 308.360763,21.2721482 C308.360763,15.3997532 303.600247,10.6392365 297.727852,10.6392365 Z M21.2721482,10.6392365 C15.3997532,10.6392365 10.6392365,15.3997532 10.6392365,21.2721482 C10.6392365,27.1445431 15.3997532,31.9050599 21.2721482,31.9050599 C27.1445431,31.9050599 31.9050599,27.1445431 31.9050599,21.2721482 C31.9050599,15.3997532 27.1445431,10.6392365 21.2721482,10.6392365 Z M159.5,244.563293 L170.132912,244.563293 L170.132912,265.829117 L180.765823,265.829117 L180.765823,255.196205 L191.398735,255.196205 L191.398735,265.829117 L202.031647,265.829117 L202.031647,255.196205 L212.664558,255.196205 L212.664558,265.829117 L223.29747,265.829117 L223.29747,255.196205 L233.930382,255.196205 L233.930382,265.829117 L244.563293,265.829117 L244.563293,244.563293 L255.196205,244.563293 L255.196205,265.829117 L265.829117,265.829117 L265.829117,233.930382 L95.7025299,233.930382 L95.7025299,223.29747 L271.145573,223.29747 C274.08177,223.29747 276.462028,225.677728 276.462028,228.613926 L276.462028,271.145573 C276.462028,274.08177 274.08177,276.462028 271.145573,276.462028 L132.917721,276.462028 L132.917721,265.829117 L159.5,265.829117 L159.5,244.563293 Z M265.829117,53.1708832 L265.829117,85.0696183 C265.829117,88.0058157 263.448858,90.3860741 260.512661,90.3860741 L58.4873391,90.3860741 C55.5511416,90.3860741 53.1708832,88.0058157 53.1708832,85.0696183 L53.1708832,53.1708832 C53.1708832,50.2346857 55.5511416,47.8544274 58.4873391,47.8544274 L260.512661,47.8544274 C263.448858,47.8544274 265.829117,50.2346857 265.829117,53.1708832 Z M255.196205,79.7531624 L255.196205,58.4873391 L63.8037949,58.4873391 L63.8037949,79.7531624 L255.196205,79.7531624 Z M53.1708832,132.917721 L53.1708832,106.335442 C53.1708832,103.399244 55.5511416,101.018986 58.4873391,101.018986 L111.651897,101.018986 C114.588095,101.018986 116.968353,103.399244 116.968353,106.335442 L116.968353,132.917721 C116.968353,135.853918 114.588095,138.234177 111.651897,138.234177 L58.4873391,138.234177 C55.5511416,138.234177 53.1708832,135.853918 53.1708832,132.917721 Z M63.8037949,111.651897 L63.8037949,127.601265 L106.335442,127.601265 L106.335442,111.651897 L63.8037949,111.651897 Z M191.398735,132.917721 C191.398735,135.853918 189.018477,138.234177 186.082279,138.234177 L132.917721,138.234177 C129.981523,138.234177 127.601265,135.853918 127.601265,132.917721 L127.601265,106.335442 C127.601265,103.399244 129.981523,101.018986 132.917721,101.018986 L186.082279,101.018986 C189.018477,101.018986 191.398735,103.399244 191.398735,106.335442 L191.398735,132.917721 Z M180.765823,127.601265 L180.765823,111.651897 L138.234177,111.651897 L138.234177,127.601265 L180.765823,127.601265 Z M265.829117,132.917721 C265.829117,135.853918 263.448858,138.234177 260.512661,138.234177 L207.348103,138.234177 C204.411905,138.234177 202.031647,135.853918 202.031647,132.917721 L202.031647,106.335442 C202.031647,103.399244 204.411905,101.018986 207.348103,101.018986 L260.512661,101.018986 C263.448858,101.018986 265.829117,103.399244 265.829117,106.335442 L265.829117,132.917721 Z M255.196205,127.601265 L255.196205,111.651897 L212.664558,111.651897 L212.664558,127.601265 L255.196205,127.601265 Z M58.4873391,148.867088 L111.651897,148.867088 L111.651897,159.5 L58.4873391,159.5 L58.4873391,148.867088 Z M58.4873391,170.132912 L111.651897,170.132912 L111.651897,180.765823 L58.4873391,180.765823 L58.4873391,170.132912 Z M58.4873391,191.398735 L111.651897,191.398735 L111.651897,202.031647 L58.4873391,202.031647 L58.4873391,191.398735 Z M132.917721,148.867088 L186.082279,148.867088 L186.082279,159.5 L132.917721,159.5 L132.917721,148.867088 Z M132.917721,170.132912 L186.082279,170.132912 L186.082279,180.765823 L132.917721,180.765823 L132.917721,170.132912 Z M132.917721,191.398735 L186.082279,191.398735 L186.082279,202.031647 L132.917721,202.031647 L132.917721,191.398735 Z M207.348103,148.867088 L260.512661,148.867088 L260.512661,159.5 L207.348103,159.5 L207.348103,148.867088 Z M207.348103,170.132912 L260.512661,170.132912 L260.512661,180.765823 L207.348103,180.765823 L207.348103,170.132912 Z M207.348103,191.398735 L260.512661,191.398735 L260.512661,202.031647 L207.348103,202.031647 L207.348103,191.398735 Z" fill="#FFFFFF"></path>
            <path d="M5.32278066,318.993675 C2.38658318,318.993675 0.00632482336,316.613417 0.00632482336,313.677219 L0.00632482336,164.816456 C0.00632482336,162.666503 1.30209131,160.728452 3.2884146,159.905763 C5.27473789,159.083073 7.56103912,159.537705 9.08151494,161.057722 L157.942278,309.918485 C159.462295,311.438961 159.916927,313.725262 159.094237,315.711585 C158.271548,317.697909 156.333497,318.993675 154.183544,318.993675 L5.32278066,318.993675 Z M10.6392365,177.65038 L10.6392365,308.360763 L141.34962,308.360763 L10.6392365,177.65038 Z M93.76734,283.336206 C95.2873568,284.856682 95.7419882,287.142983 94.9192989,289.129306 C94.0966096,291.115629 92.1585587,292.411396 90.0086057,292.411396 L31.9050599,292.411396 C28.9688624,292.411396 26.588604,290.031138 26.588604,287.09494 L26.588604,228.991394 C26.588604,226.841441 27.8843705,224.90339 29.8706938,224.080701 C31.8570171,223.258012 34.1433183,223.712643 35.6637941,225.23266 L93.76734,283.336206 Z M37.2215157,281.778484 L77.1746813,281.778484 L37.2215157,241.825319 L37.2215157,281.778484 Z" fill="#FF4A47"></path>
        </g>
    </g>
</svg>
