<?xml version="1.0" encoding="UTF-8"?>
<svg width="40px" height="50px" viewBox="0 0 40 50" version="1.1" xmlns="http://www.w3.org/2000/svg" xmlns:xlink="http://www.w3.org/1999/xlink">
    <!-- Generator: Sketch 56.2 (81672) - https://sketch.com -->
    <title>muted 2</title>
    <desc>Created with Sketch.</desc>
    <g id="Page-1" stroke="none" stroke-width="1" fill="none" fill-rule="evenodd" stroke-linejoin="round">
        <g id="LP-Freeelance-(M)" transform="translate(-167.000000, -2591.000000)" fill="#FFFFFF" fill-rule="nonzero" stroke="#16BD31" stroke-width="0.1">
            <g id="Group-4" transform="translate(15.000000, 1662.000000)">
                <g id="Group-3-Copy-10" transform="translate(0.000000, 850.000000)">
                    <g id="Group-2" transform="translate(124.000000, 56.000000)">
                        <g id="muted-2" transform="translate(28.000000, 24.000000)">
                            <g id="muted">
                                <path d="M32.9166667,23.1724138 C33.3766667,23.1724138 33.75,23.5423448 33.75,24 L33.75,28.9655172 C33.75,35.9867586 28.2133333,41.7343448 21.25,42.1646897 L21.25,46.3448276 L25.4166667,46.3448276 C25.8766667,46.3448276 26.25,46.7147586 26.25,47.1724138 C26.25,47.630069 25.8766667,48 25.4166667,48 L15.4166667,48 C14.9566667,48 14.5833333,47.630069 14.5833333,47.1724138 C14.5833333,46.7147586 14.9566667,46.3448276 15.4166667,46.3448276 L19.5833333,46.3448276 L19.5833333,42.1646897 C12.62,41.7343448 7.08333333,35.9875862 7.08333333,28.9655172 L7.08333333,24 C7.08333333,23.5423448 7.45666667,23.1724138 7.91666667,23.1724138 C8.37666667,23.1724138 8.75,23.5423448 8.75,24 L8.75,28.9655172 C8.75,35.3544828 13.9833333,40.5517241 20.4166667,40.5517241 C26.85,40.5517241 32.0833333,35.3544828 32.0833333,28.9655172 L32.0833333,24 C32.0833333,23.5423448 32.4566667,23.1724138 32.9166667,23.1724138 Z M20.4166667,38.0689655 C15.3625,38.0689655 11.25,33.9848276 11.25,28.9655172 L11.25,9.10344828 C11.25,4.08413793 15.3625,0 20.4166667,0 C25.4708333,0 29.5833333,4.08413793 29.5833333,9.10344828 L29.5833333,28.9655172 C29.5833333,33.9848276 25.4708333,38.0689655 20.4166667,38.0689655 Z M12.9166667,9.10344828 L12.9166667,28.9655172 C12.9166667,33.0728276 16.2816667,36.4137931 20.4166667,36.4137931 C24.5516667,36.4137931 27.9166667,33.0728276 27.9166667,28.9655172 L27.9166667,9.10344828 C27.9166667,4.99613793 24.5516667,1.65517241 20.4166667,1.65517241 C16.2816667,1.65517241 12.9166667,4.99613793 12.9166667,9.10344828 Z M39.3391667,3.55282759 C39.665,3.87641379 39.665,4.39944828 39.3391667,4.72303448 L31.8391667,12.1713103 C31.6766667,12.3326897 31.4633333,12.4137931 31.25,12.4137931 C31.0366667,12.4137931 30.8233333,12.3326897 30.6608333,12.1713103 C30.335,11.8477241 30.335,11.3246897 30.6608333,11.0011034 L38.1608333,3.55282759 C38.4866667,3.22924138 39.0133333,3.22924138 39.3391667,3.55282759 Z M26.8391667,17.1368276 L15.1725,28.7230345 C15.01,28.8844138 14.7966667,28.9655172 14.5833333,28.9655172 C14.37,28.9655172 14.1566667,28.8844138 13.9941667,28.7230345 C13.6683333,28.3994483 13.6683333,27.8764138 13.9941667,27.5528276 L25.6608333,15.9666207 C25.9866667,15.6430345 26.5133333,15.6430345 26.8391667,15.9666207 C27.165,16.2902069 27.165,16.8132414 26.8391667,17.1368276 Z M6.49416667,35.0011034 C6.82,34.6775172 7.34666667,34.6775172 7.6725,35.0011034 C7.99833333,35.3246897 7.99833333,35.8477241 7.6725,36.1713103 L1.83916667,41.9644138 C1.67666667,42.1257931 1.46333333,42.2068966 1.25,42.2068966 C1.03666667,42.2068966 0.823333333,42.1257931 0.660833333,41.9644138 C0.335,41.6408276 0.335,41.1177931 0.660833333,40.7942069 L6.49416667,35.0011034 Z" id="Combined-Shape"></path>
                            </g>
                        </g>
                    </g>
                </g>
            </g>
        </g>
    </g>
</svg>