<svg width="55px" height="50px" viewBox="0 0 55 50" version="1.1" xmlns="http://www.w3.org/2000/svg" xmlns:xlink="http://www.w3.org/1999/xlink">
    <g stroke="none" stroke-width="1" fill="none" fill-rule="evenodd" stroke-linejoin="round">
        <g transform="translate(-160.000000, -2239.000000)" fill="#FFFFFF" fill-rule="nonzero" stroke="#16BD31" stroke-width="0.5">
            <g transform="translate(15.000000, 1662.000000)">
                <g transform="translate(0.000000, 498.000000)">
                    <g transform="translate(124.000000, 56.000000)">
                        <g transform="translate(22.000000, 24.000000)">
                            <path d="M52.9902833,16 C52.9028333,14.4791111 51.10525,13.2906667 47.5100833,12.384 C47.6311,12.1173333 47.6991167,11.84 47.7,11.552 L47.7,5.33333333 L47.6849833,5.33333333 C47.36875,0.152888889 26.2729833,0 23.85,0 C21.4270167,0 0.33125,0.152888889 0.0150166667,5.33333333 L0,5.33333333 L0,5.44888889 L0,5.44888889 L0,5.44888889 L0,11.5546667 C0.00441666667,13.2435556 2.17035,14.5653333 5.39275,15.5493333 C5.34858333,15.6968889 5.32208333,15.8471111 5.31325,16 L5.3,16 L5.3,16.1155556 L5.3,16.1155556 L5.3,16.1155556 L5.3,22.2106667 C1.8285,23.1102222 0.0945166667,24.2817778 0.00883333333,25.7777778 L0,25.7777778 L0,25.8933333 L0,25.8933333 L0,25.8933333 L0,31.9991111 C0.00265,33.1751111 1.05646667,34.1724444 2.78073333,35.0035556 C2.71536667,35.184 2.67473333,35.368 2.66325,35.5564444 L2.65,35.5564444 L2.65,35.672 L2.65,35.672 L2.65,35.672 L2.65,41.7777778 C2.65706667,44.7342222 9.27235,46.5697778 16.6225667,47.4266667 C16.67645,47.4373333 16.7259167,47.4595556 16.7833333,47.4595556 C16.8001167,47.4595556 16.81425,47.4506667 16.8310333,47.4497778 C18.2479,47.6106667 19.6877333,47.736 21.11255,47.8257778 C21.1425833,47.8293333 21.1690833,47.8435556 21.2,47.8435556 C21.2167833,47.8435556 21.2300333,47.8346667 21.2459333,47.8337778 C23.055,47.944 24.8349167,48 26.5,48 C28.1650833,48 29.945,47.944 31.7540667,47.8328889 C31.7699667,47.8337778 31.7841,47.8426667 31.8,47.8426667 C31.8309167,47.8426667 31.8574167,47.8275556 31.88745,47.8248889 C33.3122667,47.7351111 34.7521,47.6106667 36.1689667,47.4488889 C36.18575,47.4488889 36.1998833,47.4577778 36.2166667,47.4577778 C36.2740833,47.4577778 36.32355,47.4355556 36.3774333,47.4248889 C43.72765,46.568 50.34205,44.7315556 50.35,41.7742222 L50.35,35.5555556 L50.3358667,35.5555556 C50.2740333,34.4657778 49.35095,33.5564444 47.52775,32.7964444 C47.63905,32.5395556 47.7,32.2728889 47.7,31.9964444 L47.7,26.1866667 C50.8711667,25.2053333 52.9955833,23.8924444 53,22.2186667 L53,16 L52.9902833,16 Z M45.8379333,32.2853333 L45.5367167,32.5511111 C45.0729667,32.9626667 44.30005,33.3777778 43.2833333,33.7777778 L43.2833333,29.5395556 C44.3336167,29.1715556 45.22755,28.7635556 45.9333333,28.3164444 L45.9333333,31.9946667 C45.9333333,32.0862222 45.8997667,32.184 45.8379333,32.2853333 Z M26.0813,36.416 C25.9523333,36.4195556 25.8224833,36.4213333 25.6926333,36.424 C25.3772833,36.4302222 25.0539833,36.432 24.7342167,36.4346667 L24.7342167,31.9946667 C24.9771333,31.992 25.22005,31.9884444 25.4629667,31.984 C25.5097833,31.9831111 25.5566,31.9822222 25.6034167,31.9813333 C26.4929333,31.9644444 27.38245,31.9368889 28.26755,31.896 L28.26755,36.3342222 C28.0785167,36.344 27.8886,36.3528889 27.6969167,36.3608889 C27.16515,36.3848889 26.6280833,36.4026667 26.0813,36.416 Z M22.2237833,36.4284444 C21.8192167,36.4213333 21.4164167,36.4115556 21.0162667,36.3991111 C20.9668,36.3973333 20.9173333,36.3955556 20.8678667,36.3937778 C20.38645,36.3777778 19.9085667,36.3573333 19.4342167,36.3342222 L19.4342167,31.8968889 C20.3193167,31.9386667 21.2088333,31.9662222 22.09835,31.9822222 C22.1451667,31.9831111 22.1919833,31.984 22.2379167,31.9848889 C22.4808333,31.9893333 22.72375,31.9928889 22.9666667,31.9955556 L22.9666667,36.4382222 C22.7953,36.4364444 22.6239333,36.4364444 22.45345,36.4337778 C22.3757167,36.432 22.3006333,36.4293333 22.2237833,36.4284444 Z M6.26901667,34.4017778 C6.23986667,34.3928889 6.21248333,34.3848889 6.18333333,34.3768889 L6.18333333,30.0826667 C7.00836667,30.3066667 7.89523333,30.5111111 8.83333333,30.6968889 L8.83333333,35.0355556 C8.02243333,34.8622222 7.27425,34.68 6.5932,34.4933333 C6.48543333,34.4622222 6.37413333,34.4328889 6.26901667,34.4017778 Z M24.8879167,41.7626667 C25.1308333,41.7671111 25.37375,41.7706667 25.6166667,41.7733333 L25.6166667,46.2168889 C24.3959,46.2053333 23.2175333,46.1697778 22.0833333,46.1137778 L22.0833333,41.6755556 C22.9684333,41.7173333 23.85795,41.7448889 24.7474667,41.7608889 C24.7942833,41.7608889 24.8411,41.7617778 24.8879167,41.7626667 Z M28.2525333,41.76 C29.14205,41.7431111 30.0315667,41.7155556 30.9166667,41.6746667 L30.9166667,46.1128889 C29.7824667,46.1688889 28.6041,46.2044444 27.3833333,46.216 L27.3833333,41.7724444 C27.62625,41.7697778 27.8691667,41.7662222 28.1120833,41.7617778 C28.1589,41.7617778 28.2057167,41.7608889 28.2525333,41.76 Z M35.3333333,41.3582222 L35.3333333,45.7724444 C34.48445,45.8622222 33.6011167,45.9413333 32.6833333,46.0062222 L32.6833333,41.5733333 C33.5790333,41.5146667 34.4641333,41.4426667 35.3333333,41.3582222 Z M37.1,41.1662222 C38.0107167,41.056 38.8949333,40.9306667 39.75,40.7911111 L39.75,45.1555556 C38.9179,45.3031111 38.0336833,45.4391111 37.1,45.5626667 L37.1,41.1662222 Z M41.5166667,40.4737778 C42.4547667,40.288 43.3416333,40.0835556 44.1666667,39.8595556 L44.1666667,44.1537778 C43.3796167,44.3822222 42.4936333,44.6035556 41.5166667,44.8124444 L41.5166667,40.4737778 Z M11.4833333,40.4737778 L11.4833333,44.8124444 C10.5063667,44.6035556 9.62038333,44.3822222 8.83333333,44.1537778 L8.83333333,39.8595556 C9.65836667,40.0835556 10.5452333,40.2888889 11.4833333,40.4737778 Z M13.25,40.792 C14.1050667,40.9315556 14.9892833,41.0568889 15.9,41.1671111 L15.9,45.5635556 C14.9663167,45.44 14.0821,45.304 13.25,45.1564444 L13.25,40.792 Z M17.6666667,41.3582222 C18.5358667,41.4426667 19.4209667,41.5146667 20.3166667,41.5742222 L20.3166667,46.0071111 C19.3988833,45.9422222 18.51555,45.8631111 17.6666667,45.7733333 L17.6666667,41.3582222 Z M15.4751167,36.0426667 C15.3850167,36.0337778 15.2958,36.024 15.2065833,36.0151111 C15.1429833,36.0088889 15.0802667,36.0008889 15.0166667,35.9946667 L15.0166667,31.5813333 C15.8858667,31.6657778 16.7709667,31.7377778 17.6666667,31.7973333 L17.6666667,36.2266667 C16.9246667,36.1733333 16.1915,36.1128889 15.4751167,36.0426667 Z M13.25,31.3884444 L13.25,35.7848889 C12.3163167,35.6613333 11.4321,35.5253333 10.6,35.3777778 L10.6,31.0133333 C11.4550667,31.1528889 12.3392833,31.2791111 13.25,31.3884444 Z M30.6216333,36.1848889 C30.4273,36.2 30.2312,36.2151111 30.0333333,36.2293333 L30.0333333,31.7964444 C30.9290333,31.7368889 31.8141333,31.6657778 32.6833333,31.5804444 L32.6833333,35.9946667 C32.1374333,36.0524444 31.5791667,36.1066667 31.0058833,36.1537778 C30.8778,36.1653333 30.7497167,36.1751111 30.6216333,36.1848889 Z M34.45,35.7848889 L34.45,31.3884444 C35.3607167,31.2782222 36.2449333,31.1528889 37.1,31.0133333 L37.1,35.3777778 C36.2679,35.5253333 35.3836833,35.6622222 34.45,35.7848889 Z M38.8666667,30.696 C39.8047667,30.5102222 40.6916333,30.3057778 41.5166667,30.0817778 L41.5166667,34.376 C40.7296167,34.6044444 39.8436333,34.8257778 38.8666667,35.0346667 L38.8666667,30.696 Z M26.7870833,26.6355556 C26.1228167,26.6186667 25.4735667,26.5928889 24.8358,26.5617778 C24.80135,26.56 24.7669,26.5582222 24.7333333,26.5573333 L24.7333333,22.1191111 C25.6184333,22.1608889 26.50795,22.1884444 27.3974667,22.2044444 C27.4442833,22.2053333 27.4911,22.2062222 27.5370333,22.2071111 C27.77995,22.2115556 28.0228667,22.2151111 28.2657833,22.2177778 L28.2657833,26.656 C27.8356,26.6515556 27.4018833,26.6497778 26.9823,26.64 C26.9178167,26.6382222 26.8515667,26.6373333 26.7870833,26.6355556 Z M6.18333333,13.9324444 L6.18333333,9.63822222 C7.00836667,9.86222222 7.89523333,10.0666667 8.83333333,10.2524444 L8.83333333,14.5911111 C8.72468333,14.568 8.6125,14.5448889 8.5065,14.5217778 C8.03656667,14.4177778 7.57811667,14.3093333 7.13998333,14.1946667 C6.80608333,14.1084444 6.48896667,14.0204444 6.18333333,13.9324444 Z M22.2379167,11.5404444 C22.4808333,11.5448889 22.72375,11.5484444 22.9666667,11.5511111 L22.9666667,15.9893333 C21.7777,15.9777778 20.5958,15.9466667 19.4333333,15.888 L19.4333333,11.4533333 C20.3184333,11.4951111 21.20795,11.5226667 22.0974667,11.5386667 C22.1442833,11.5386667 22.1911,11.5395556 22.2379167,11.5404444 Z M25.6025333,11.5377778 C26.49205,11.5208889 27.3815667,11.4933333 28.2666667,11.4524444 L28.2666667,15.8871111 C28.1165,15.8942222 27.9725167,15.9048889 27.8214667,15.912 C27.8091,15.9128889 27.7967333,15.9128889 27.7834833,15.9137778 C27.1907667,15.9404444 26.5865667,15.96 25.9744167,15.9742222 C25.8790167,15.9768889 25.7836167,15.9777778 25.6882167,15.9804444 C25.37375,15.9866667 25.0522167,15.9875556 24.7333333,15.9911111 L24.7333333,11.5511111 C24.97625,11.5484444 25.2191667,11.5448889 25.4620833,11.5404444 C25.5089,11.5395556 25.5557167,11.5386667 25.6025333,11.5377778 Z M45.73105,11.984 L45.7063167,11.9786667 L45.3847833,12.2302222 C44.9183833,12.5955556 44.202,12.9653333 43.2833333,13.3226667 L43.2833333,9.09422222 C44.3336167,8.72622222 45.22755,8.31822222 45.9333333,7.87111111 L45.9333333,11.5493333 C45.9333333,11.6844444 45.8626667,11.8302222 45.73105,11.984 Z M34.45,15.3351111 L34.45,10.944 C35.3607167,10.8337778 36.2449333,10.7084444 37.1,10.5688889 L37.1,14.9262222 C36.2626,15.0755556 35.3810333,15.2124444 34.45,15.3351111 Z M38.8666667,14.584 L38.8666667,10.2524444 C39.8047667,10.0666667 40.6916333,9.86222222 41.5166667,9.63822222 L41.5166667,13.9226667 C40.7252,14.1546667 39.8339167,14.376 38.8666667,14.584 Z M32.6833333,11.136 L32.6833333,15.5448889 C31.8300333,15.6355556 30.9467,15.7146667 30.0333333,15.7804444 L30.0333333,11.352 C30.9290333,11.2924444 31.8141333,11.2204444 32.6833333,11.136 Z M15.0166667,15.5466667 L15.0166667,11.136 C15.8858667,11.2204444 16.7709667,11.2924444 17.6666667,11.352 L17.6666667,15.7768889 C16.7674333,15.712 15.8805667,15.6382222 15.0166667,15.5466667 Z M13.25,10.944 L13.25,15.336 C13.0751,15.3128889 12.8931333,15.2942222 12.72,15.2702222 C12.6069333,15.2542222 12.4991667,15.2373333 12.3878667,15.2213333 C11.8773,15.1475556 11.3782167,15.0684444 10.88885,14.9857778 C10.7908,14.9688889 10.6962833,14.9511111 10.6,14.9342222 L10.6,10.5697778 C11.4550667,10.7084444 12.3392833,10.8346667 13.25,10.944 Z M22.7476,26.4346667 C22.62835,26.4257778 22.5082167,26.4168889 22.38985,26.408 C21.8245167,26.3635556 21.2724333,26.3146667 20.7336,26.2604444 C20.6178833,26.2488889 20.5021667,26.2364444 20.3873333,26.2248889 C20.3634833,26.2222222 20.3405167,26.2186667 20.3166667,26.2168889 L20.3166667,21.8026667 C21.1858667,21.8871111 22.0709667,21.9591111 22.9666667,22.0186667 L22.9666667,26.4488889 C22.8951167,26.4435556 22.81915,26.44 22.7476,26.4346667 Z M16.9114167,25.7706667 C16.5616167,25.7146667 16.2330167,25.6542222 15.9,25.5955556 L15.9,21.2364444 C16.7550667,21.376 17.6392833,21.5013333 18.55,21.6115556 L18.55,26.008 C18.0094,25.936 17.4802833,25.8613333 16.9723667,25.7813333 C16.95205,25.7768889 16.9317333,25.7733333 16.9114167,25.7706667 Z M14.1333333,20.9182222 L14.1333333,25.2497778 C13.15725,25.0391111 12.27215,24.8151111 11.4833333,24.5822222 L11.4833333,20.304 C12.3083667,20.528 13.1952333,20.7333333 14.1333333,20.9182222 Z M9.71666667,19.7608889 L9.71666667,23.984 C8.32806667,23.4444444 7.43236667,22.8933333 7.14086667,22.4026667 L7.08168333,22.3031111 C7.07638333,22.2755556 7.06755,22.2462222 7.06666667,22.2186667 L7.06666667,18.5377778 C7.77245,18.9848889 8.66638333,19.3928889 9.71666667,19.7608889 Z M30.9025333,22.2044444 C31.79205,22.1875556 32.6815667,22.16 33.5666667,22.1191111 L33.5666667,26.5528889 C32.4059667,26.6106667 31.2258333,26.6426667 30.0333333,26.6551111 L30.0333333,22.2177778 C30.27625,22.2151111 30.5191667,22.2115556 30.7620833,22.2071111 C30.8089,22.2062222 30.8557167,22.2053333 30.9025333,22.2044444 Z M42.31785,25.6151111 C41.9300667,25.6826667 41.53875,25.7493333 41.1368333,25.8106667 C40.9062833,25.8462222 40.6704333,25.88 40.4337,25.9137778 C40.2102167,25.9457778 39.9779,25.9733333 39.7508833,26.0026667 L39.7508833,21.6106667 C40.6616,21.5004444 41.5458167,21.3751111 42.4008833,21.2355556 L42.4008833,25.6 C42.3726167,25.6053333 42.3452333,25.6106667 42.31785,25.6151111 Z M36.3368,26.3742222 C36.0073167,26.4017778 35.6672333,26.4195556 35.3333333,26.4435556 L35.3333333,22.0186667 C36.2290333,21.9591111 37.1141333,21.888 37.9833333,21.8026667 L37.9833333,26.2124444 C37.4701167,26.2666667 36.9577833,26.3208889 36.4304333,26.3653333 C36.3986333,26.368 36.3686,26.3715556 36.3368,26.3742222 Z M46.4315333,24.7075556 C45.9916333,24.8311111 45.5261167,24.9466667 45.0508833,25.0595556 C44.8309333,25.1111111 44.6065667,25.1626667 44.3769,25.2124444 C44.3088833,25.2275556 44.23645,25.2408889 44.16755,25.256 L44.16755,20.9191111 C45.10565,20.7333333 45.9925167,20.5288889 46.81755,20.3048889 L46.81755,24.5991111 C46.69035,24.6346667 46.5622667,24.6711111 46.4315333,24.7075556 Z M51.2236167,16.0577778 C51.14235,16.6613333 49.7829,17.464 47.3563833,18.2186667 L47.3563833,18.2186667 C44.23115,19.1902222 39.3410167,20.08 33.14355,20.3555556 C32.8264333,20.3688889 32.5102,20.3822222 32.1869,20.3928889 C31.9227833,20.4017778 31.6577833,20.4097778 31.3883667,20.4168889 C30.6569667,20.4328889 29.9149667,20.4444444 29.15,20.4444444 C28.3850333,20.4444444 27.6430333,20.4328889 26.9116333,20.416 C26.6431,20.4097778 26.3781,20.4008889 26.1131,20.392 C25.7889167,20.3822222 25.4726833,20.368 25.15645,20.3546667 C18.9589833,20.0791111 14.0679667,19.1893333 10.9436167,18.2177778 L10.9436167,18.2177778 C8.53653333,17.4693333 7.17973333,16.6728889 7.07903333,16.072 C7.08345,16.0551111 7.08345,16.0408889 7.09405,16.0195556 C7.15411667,16.0346667 7.22125,16.0471111 7.2822,16.0622222 C7.62758333,16.1448889 7.9818,16.2248889 8.3422,16.3013333 C10.0973833,16.6817778 12.0424833,16.9937778 14.1147833,17.232 C14.12185,17.232 14.12715,17.2355556 14.1333333,17.2355556 C14.1351,17.2355556 14.1368667,17.2346667 14.13775,17.2346667 C15.5493167,17.3964444 17.0138833,17.5235556 18.5173167,17.6133333 C18.5288,17.6133333 18.5385167,17.6195556 18.55,17.6195556 C18.5561833,17.6195556 18.5606,17.616 18.5667833,17.616 C19.6488667,17.68 20.7450833,17.7271111 21.85455,17.752 C22.5338333,17.7688889 23.20075,17.7777778 23.85,17.7777778 C24.31375,17.7777778 24.7889833,17.7724444 25.2686333,17.7635556 C31.6869333,17.664 37.6353,16.896 41.7746,15.7057778 C41.9654,15.6515556 42.1517833,15.5955556 42.3355167,15.5395556 C42.4477,15.5048889 42.5625333,15.4711111 42.6711833,15.4364444 C42.99095,15.3333333 43.2974667,15.2275556 43.5933833,15.1173333 C43.6446167,15.0977778 43.6932,15.0782222 43.7444333,15.0586667 C43.9944167,14.9635556 44.2346833,14.8648889 44.46435,14.7644444 C44.5306,14.7351111 44.5986167,14.7066667 44.6631,14.6773333 C44.9077833,14.5662222 45.1445167,14.4524444 45.3635833,14.3342222 C45.4625167,14.2817778 45.5482,14.2275556 45.64095,14.1742222 C45.74695,14.1128889 45.85295,14.0506667 45.951,13.9875556 C46.00665,13.952 46.0729,13.9182222 46.1259,13.8826667 C50.0805833,14.7457778 51.1229167,15.6897778 51.2236167,16.0577778 Z M23.85,1.77777778 C38.4152833,1.77777778 45.7822833,4.08533333 45.9200833,5.40977778 C45.8132,6.01066667 44.4572833,6.80444444 42.0563833,7.55111111 L42.0563833,7.55111111 C38.93115,8.52266667 34.0410167,9.41244444 27.84355,9.688 C27.5264333,9.70133333 27.2102,9.71466667 26.8869,9.72533333 C26.6227833,9.73422222 26.3577833,9.74222222 26.0883667,9.74933333 C25.3569667,9.76622222 24.6149667,9.77777778 23.85,9.77777778 C23.0850333,9.77777778 22.3430333,9.76622222 21.6116333,9.74933333 C21.3431,9.74311111 21.0781,9.73422222 20.8131,9.72533333 C20.4889167,9.71555556 20.1726833,9.70133333 19.85645,9.688 C13.6589833,9.41244444 8.76796667,8.52266667 5.64361667,7.55111111 L5.64361667,7.55111111 C3.24183333,6.80444444 1.8868,6.01066667 1.77991667,5.40977778 C1.91771667,4.08533333 9.28471667,1.77777778 23.85,1.77777778 Z M1.76666667,11.552 L1.76666667,7.87111111 C2.47245,8.31822222 3.36638333,8.72622222 4.41666667,9.09422222 L4.41666667,13.3502222 C2.69858333,12.7022222 1.76843333,12.0524444 1.76666667,11.552 Z M6.04553333,23.8533333 C6.05878333,23.8675556 6.0791,23.88 6.09235,23.8942222 C7.30163333,25.1226667 9.80588333,26.088 12.9231667,26.808 C12.9947167,26.8248889 13.0706833,26.8408889 13.1431167,26.8577778 C13.3719,26.9093333 13.6042167,26.96 13.8391833,27.0088889 C16.7020667,27.6222222 20.1196833,28.0657778 23.8429333,28.2853333 C23.8455833,28.2853333 23.84735,28.2862222 23.8491167,28.2862222 C23.8508833,28.2862222 23.8517667,28.2853333 23.85265,28.2853333 C25.0486833,28.3555556 26.2721,28.4044444 27.5211333,28.4257778 C28.0741,28.4373333 28.6182333,28.4444444 29.15,28.4444444 C29.7595,28.4444444 30.3849,28.4373333 31.0209,28.4222222 C32.1763,28.3982222 33.3149167,28.3502222 34.4376333,28.2844444 C34.44205,28.2844444 34.4455833,28.2871111 34.45,28.2871111 C34.45795,28.2871111 34.4641333,28.2826667 34.4720833,28.2826667 C38.20505,28.0613333 41.7074667,27.6133333 44.6692833,26.9688889 C44.0279833,27.3066667 43.14995,27.656 42.0563833,27.9964444 L42.0563833,27.9964444 C38.7571333,29.0222222 33.48805,29.9564444 26.7915,30.1733333 C26.59275,30.1795556 26.39665,30.1866667 26.19525,30.192 C25.9788333,30.1973333 25.7588833,30.2008889 25.5389333,30.2053333 C24.9833167,30.2142222 24.4241667,30.2222222 23.85,30.2222222 C23.0850333,30.2222222 22.3430333,30.2106667 21.6116333,30.1937778 C21.3431,30.1875556 21.0781,30.1786667 20.8131,30.1697778 C20.4889167,30.16 20.1726833,30.1457778 19.85645,30.1324444 C13.6589833,29.8568889 8.76796667,28.9671111 5.64361667,27.9955556 L5.64361667,27.9955556 C3.21445,27.24 1.855,26.4364444 1.77638333,25.8328889 C1.87443333,25.4986667 2.76748333,24.6622222 6.04553333,23.8533333 Z M1.76666667,31.9964444 L1.76666667,28.3155556 C2.47245,28.7626667 3.36638333,29.1706667 4.41666667,29.5386667 L4.41666667,33.7777778 L3.91228333,33.5804444 L3.90168333,33.5911111 C2.51485,33.0124444 1.76843333,32.4444444 1.76666667,31.9964444 Z M4.41666667,41.7742222 L4.41666667,38.0933333 C5.12245,38.5404444 6.01638333,38.9484444 7.06666667,39.3164444 L7.06666667,43.5724444 C5.34858333,42.9244444 4.41843333,42.2746667 4.41666667,41.7742222 Z M45.9333333,43.5724444 L45.9333333,39.3173333 C46.9836167,38.9493333 47.87755,38.5413333 48.5833333,38.0942222 L48.5833333,41.7724444 C48.58245,42.2728889 47.6514167,42.9235556 45.9333333,43.5724444 Z M48.57185,35.624 C48.4755667,36.2257778 47.1187667,37.024 44.7063833,37.7742222 L44.7063833,37.7742222 C41.58115,38.7457778 36.6910167,39.6355556 30.49355,39.9111111 C30.1764333,39.9244444 29.8602,39.9377778 29.5369,39.9484444 C29.2727833,39.9573333 29.0077833,39.9653333 28.7383667,39.9724444 C28.0069667,39.9884444 27.2649667,40 26.5,40 C25.7350333,40 24.99215,39.9884444 24.2598667,39.9715556 C23.9939833,39.9653333 23.7316333,39.9564444 23.4692833,39.9475556 C23.1433333,39.9368889 22.8253333,39.9235556 22.50645,39.9102222 C16.3089833,39.6346667 11.41885,38.7448889 8.29361667,37.7733333 L8.29361667,37.7733333 C5.9572,37.0471111 4.60746667,36.2755556 4.43786667,35.68 C4.7011,35.7724444 4.97405,35.8622222 5.25406667,35.9502222 C5.28233333,35.9591111 5.3106,35.968 5.33886667,35.976 C5.57736667,36.0497778 5.82116667,36.1208889 6.07115,36.1902222 C6.16566667,36.2168889 6.26106667,36.2435556 6.35735,36.2693333 C6.49868333,36.3075556 6.64355,36.344 6.78841667,36.3813333 C10.0055167,37.2106667 14.1121333,37.7982222 18.5455833,38.0622222 C18.54735,38.0622222 18.5482333,38.0631111 18.55,38.0631111 C18.5508833,38.0631111 18.5517667,38.0622222 18.55265,38.0622222 C19.9218167,38.144 21.3201333,38.1946667 22.7334667,38.2115556 C23.1097667,38.2186667 23.4834167,38.2222222 23.85,38.2222222 C24.3367167,38.2222222 24.8349167,38.216 25.3393,38.2071111 C26.6280833,38.1857778 27.9000833,38.1377778 29.1438167,38.0631111 C29.1464667,38.0631111 29.1482333,38.0648889 29.1508833,38.0648889 C29.1553,38.0648889 29.15795,38.0622222 29.1623667,38.0622222 C30.6772833,37.9706667 32.1436167,37.84 33.5525333,37.6773333 C33.5578333,37.6773333 33.56225,37.68 33.56755,37.68 C33.5869833,37.68 33.6028833,37.6702222 33.6223167,37.6684444 C35.1911167,37.4862222 36.67865,37.2622222 38.0593,37.0017778 C38.3437333,36.9493333 38.62375,36.8951111 38.9011167,36.8391111 C38.96295,36.8266667 39.0247833,36.8142222 39.0866167,36.8008889 C41.6951,36.2622222 43.9529,35.5644444 45.5022667,34.6995556 C45.5870667,34.6533333 45.6665667,34.6053333 45.74695,34.5582222 C45.845,34.4995556 45.9386333,34.44 46.0296167,34.3795556 C46.1144167,34.3244444 46.2124667,34.2711111 46.2902,34.2151111 C48.0339,34.8408889 48.5144333,35.4008889 48.57185,35.624 Z M48.5833333,24.0168889 L48.5833333,19.7617778 C49.6336167,19.3937778 50.52755,18.9857778 51.2333333,18.5386667 L51.2333333,22.2168889 C51.23245,22.7173333 50.3014167,23.368 48.5833333,24.0168889 Z"></path>
                        </g>
                    </g>
                </g>
            </g>
        </g>
    </g>
</svg>