<svg width="327px" height="327px" viewBox="0 0 327 327" version="1.1" xmlns="http://www.w3.org/2000/svg" xmlns:xlink="http://www.w3.org/1999/xlink">
    <g stroke="none" stroke-width="1" fill="none" fill-rule="evenodd" stroke-linejoin="round">
        <g transform="translate(4.000000, 4.000000)" fill-rule="nonzero" stroke="#313131" stroke-width="7">
            <path d="M317.107187,115.788101 C318.258576,116.708962 319,118.051002 319,119.54818 L319,314.318436 C319,314.494758 318.988785,314.667965 318.969471,314.839302 C318.708415,317.171361 316.666694,319 314.317812,319 L4.68218812,319 C2.09654864,319 1.93267624e-12,316.904075 1.93267624e-12,314.318436 L1.93267624e-12,119.547557 C1.93267624e-12,118.110191 0.713387279,116.629212 1.89218966,115.787478 L19.9760899,102.36957 L19.9760899,24.6589729 C19.9760899,22.0733341 22.0726385,19.976786 24.658278,19.976786 L131.027748,19.976786 L156.70969,0.922185244 C158.366991,-0.307706584 160.633009,-0.307083539 162.289687,0.922185244 C162.289687,0.922185244 187.671321,19.7886262 187.852004,19.976786 L294.340476,19.976786 C296.926738,19.976786 299.022664,22.0733341 299.022664,24.6589729 L299.022664,102.370193 L317.107187,115.788101 Z M299.022664,114.030489 L299.022664,123.637228 L306.030059,119.229181 L299.022664,114.030489 Z M159.499688,10.5127247 L146.743452,19.977409 L172.256548,19.977409 L159.499688,10.5127247 Z M29.3404661,29.3411599 L29.3404661,129.526877 L45.7290591,139.835788 L205.383263,139.835788 C207.969525,139.835788 210.065451,141.932336 210.065451,144.517975 C210.065451,147.103614 207.969525,149.200162 205.383263,149.200162 L60.615489,149.200162 L159.499688,211.40191 L258.384511,149.200162 L227.857143,149.200162 C225.27088,149.200162 223.174955,147.103614 223.174955,144.517975 C223.174955,141.932336 225.27088,139.835788 227.857143,139.835788 L273.270941,139.835788 L289.658911,129.526877 L289.658911,29.3411599 L29.3404661,29.3411599 Z M19.9767129,114.030489 L12.9693184,119.229181 L19.9767129,123.637228 L19.9767129,114.030489 Z M9.3637532,309.636249 L298.080619,309.636249 L9.3637532,128.023468 L9.3637532,309.636249 Z M309.635624,305.841902 L309.635624,128.023468 L168.293355,216.932685 L309.635624,305.841902 Z M209.441159,159.812496 C212.027422,159.812496 214.122724,161.909044 214.123347,164.494683 C214.123347,167.080322 212.027422,169.17687 209.441159,169.17687 L184.470735,169.17687 C181.884473,169.17687 179.788547,167.080322 179.788547,164.494683 C179.788547,161.909044 181.884473,159.812496 184.470735,159.812496 L209.441159,159.812496 Z M164.494022,159.812496 C167.080285,159.812496 169.176211,161.909044 169.176211,164.494683 C169.176211,167.080322 167.080285,169.17687 164.494022,169.17687 L109.558841,169.17687 C106.973201,169.17687 104.876653,167.080322 104.876653,164.494683 C104.876653,161.909044 106.973201,159.812496 109.558841,159.812496 L164.494022,159.812496 Z M154.505354,184.782914 C157.091617,184.782914 159.187543,186.879462 159.187543,189.465101 C159.187543,192.05074 157.090994,194.147288 154.505354,194.147288 L134.528642,194.147288 C131.943002,194.147288 129.846453,192.05074 129.846453,189.465101 C129.846453,186.879462 131.943002,184.782914 134.528642,184.782914 L154.505354,184.782914 Z M179.476401,184.782914 C182.062664,184.782914 184.15859,186.879462 184.15859,189.465101 C184.15859,192.05074 182.062664,194.147288 179.476401,194.147288 L169.488356,194.147288 C166.902094,194.147288 164.806168,192.05074 164.806168,189.465101 C164.806168,186.879462 166.902094,184.782914 169.488356,184.782914 L179.476401,184.782914 Z M199.452491,54.9358693 C202.038754,54.9358693 204.134679,57.0324174 204.134679,59.6180563 C204.134679,62.2036951 202.038754,64.3002432 199.452491,64.3002432 L59.6173699,64.3002432 C57.0317304,64.3002432 54.9351818,62.2036951 54.9351818,59.6180563 C54.9351818,57.0324174 57.0317304,54.9358693 59.6173699,54.9358693 L199.452491,54.9358693 Z M134.84141,79.9069101 C137.42705,79.9069101 139.523599,82.0028352 139.523599,84.5890971 C139.523599,87.174736 137.42705,89.2712841 134.84141,89.2712841 L59.6173699,89.2712841 C57.0317304,89.2712841 54.9351818,87.174736 54.9351818,84.5890971 C54.9351818,82.0034583 57.0317304,79.9069101 59.6173699,79.9069101 L134.84141,79.9069101 Z M199.452491,79.9069101 C202.038754,79.9069101 204.134679,82.0028352 204.134679,84.5890971 C204.134679,87.174736 202.038754,89.2712841 199.452491,89.2712841 L154.505354,89.2712841 C151.919715,89.2712841 149.823166,87.174736 149.823166,84.5890971 C149.823166,82.0034583 151.919715,79.9069101 154.505354,79.9069101 L199.452491,79.9069101 Z M159.811834,104.877328 C162.398097,104.877328 164.494022,106.973876 164.494022,109.559515 C164.494022,112.145154 162.398097,114.241702 159.811834,114.241702 L59.6173699,114.241702 C57.0317304,114.241702 54.9351818,112.145154 54.9351818,109.559515 C54.9351818,106.973876 57.0317304,104.877328 59.6173699,104.877328 L159.811834,104.877328 Z M199.452491,104.877328 C202.038754,104.877328 204.134679,106.973876 204.134679,109.559515 C204.134679,112.145154 202.038754,114.241702 199.452491,114.241702 L179.475778,114.241702 C176.889516,114.241702 174.79359,112.145154 174.79359,109.559515 C174.79359,106.973876 176.889516,104.877328 179.475778,104.877328 L199.452491,104.877328 Z" fill="#FFFFFF"></path>
            <path d="M259.382007,54.9358693 L219.429204,54.9358693 C216.842942,54.9358693 214.747016,57.0324174 214.747016,59.6180563 L214.747016,109.559515 C214.747016,112.145154 216.843565,114.241702 219.429204,114.241702 L259.382007,114.241702 C261.96827,114.241702 264.064195,112.145154 264.064195,109.559515 L264.064195,59.6180563 C264.064195,57.0324174 261.96827,54.9358693 259.382007,54.9358693 Z M254.700442,104.877328 L224.111392,104.877328 L224.111392,64.3002432 L254.700442,64.3002432 L254.700442,104.877328 Z" fill="#FF4A47"></path>
        </g>
    </g>
</svg>
