<svg width="328px" height="328px" viewBox="0 0 328 328" version="1.1" xmlns="http://www.w3.org/2000/svg" xmlns:xlink="http://www.w3.org/1999/xlink">
    <g stroke="none" stroke-width="1" fill="none" fill-rule="evenodd">
        <g transform="translate(4.000000, 4.000000)" fill-rule="nonzero" stroke="#313131" stroke-width="8">
            <path d="M64,69.5734719 C76.3127332,70.6883485 87.5403747,75.6246123 96.4839264,83.183376 L128.052445,56.1700209 C129.365205,24.9764239 155.156432,1.42108547e-14 186.666875,1.42108547e-14 C215.948229,1.42108547e-14 240.291749,21.568519 244.642089,49.6516028 L284.869875,69.0728744 C288.591835,65.9101226 293.409945,64 298.666875,64 C310.431875,64 320,73.568125 320,85.333125 C320,97.09875 310.431875,106.66625 298.666875,106.66625 C286.901875,106.66625 277.33375,97.098125 277.33375,85.333125 C277.33375,82.7271907 277.803148,80.2290389 278.661861,77.918774 L245.251678,61.7889218 C244.408992,77.779588 237.132072,92.0944744 225.968526,102.185971 L253.372632,138.724957 C254.243684,138.686372 255.11961,138.666875 256,138.666875 C288.346875,138.666875 314.666875,164.986875 314.666875,197.33375 C314.666875,229.680625 288.346875,256.000625 256,256.000625 C234.167142,256.000625 215.079957,244.009984 204.978431,226.26869 L183.518915,242.361413 C185.55915,248.314837 186.666875,254.697142 186.666875,261.333125 C186.666875,261.992484 186.655939,262.649339 186.634238,263.303518 L226.202529,282.406397 C229.924554,279.243408 234.742849,277.333125 240,277.333125 C251.765625,277.333125 261.333125,286.901875 261.333125,298.666875 C261.333125,310.431875 251.765625,320 240,320 C228.234375,320 218.666875,310.43125 218.666875,298.66625 C218.666875,296.060515 219.136202,293.562546 219.994789,291.252429 L185.188748,274.448681 C179.215084,300.50377 155.83971,320 128,320 C97.4503932,320 72.2765328,296.524105 69.5734074,266.66625 L41.9917327,266.66625 C39.6183124,275.858174 31.2577424,282.66625 21.333125,282.66625 C9.568125,282.66625 1.62714286e-12,273.098125 1.62714286e-12,261.333125 C1.62714286e-12,249.568125 9.568125,240 21.333125,240 C31.2577424,240 39.6183124,246.808076 41.9917327,256 L69.57352,256 C72.2772322,226.142675 97.4508176,202.666875 128,202.666875 C149.835373,202.666875 168.924442,214.659994 179.025061,232.404473 L200.483495,216.312561 C198.441722,210.357089 197.333125,203.972346 197.333125,197.33375 C197.333125,170.031709 216.083564,147.023231 241.382267,140.51049 L217.444984,108.593956 C208.491908,114.133718 197.945771,117.33375 186.666875,117.33375 C157.986963,117.33375 134.044922,96.642971 128.985177,69.4058402 L103.991897,90.7927271 C111.799732,100.286582 116.689254,112.266413 117.274498,125.346384 L146.944172,148.470892 C150.554572,145.66936 155.085532,144 160,144 C171.765625,144 181.333125,153.568125 181.333125,165.333125 C181.333125,177.098125 171.765625,186.66625 160,186.66625 C148.235,186.66625 138.666875,177.09875 138.666875,165.333125 C138.666875,162.340094 139.286084,159.489245 140.403165,156.901945 L116.441454,138.226217 C111.588671,165.715998 87.526487,186.666875 58.666875,186.666875 C26.32,186.666875 -1.63424829e-12,160.346875 -1.63424829e-12,128 C-1.63424829e-12,97.4506044 23.476128,72.2768809 53.33375,69.5734634 L53.33375,41.9918941 C44.1415095,39.6186914 37.333125,31.2579674 37.333125,21.333125 C37.333125,9.568125 46.90125,-2.13162821e-14 58.666875,-2.13162821e-14 C70.431875,-2.13162821e-14 80,9.568125 79.999375,21.333125 C79.999375,31.2570654 73.1919494,39.617895 64,41.9915865 L64,69.5734719 Z M138.66745,58.9038299 C138.735895,72.9956284 144.906377,85.6704259 154.666875,94.4162007 L154.666875,90.746875 C154.666875,81.883125 162.080625,74.666875 171.195,74.666875 L202.13875,74.666875 C211.253125,74.666875 218.666875,81.8825 218.666875,90.7525 L218.666875,94.4162007 C228.48205,85.621433 234.666875,72.8534995 234.666875,58.666875 C234.666875,32.1975 213.13625,10.666875 186.666875,10.666875 C160.280646,10.666875 138.802188,32.0624478 138.667512,58.4175838 C138.674855,58.5796884 138.67482,58.7419501 138.66745,58.9038299 Z M26.666875,163.749326 L26.666875,160.08 C26.666875,151.21625 34.080625,144 43.195,144 L74.13875,144 C83.253125,144 90.666875,151.21625 90.666875,160.085625 L90.666875,163.749326 C100.453919,154.979764 106.631393,142.259779 106.666723,128.121944 C106.664822,128.039626 106.664817,127.957227 106.666714,127.874817 C106.598959,101.462775 85.0945101,80 58.666875,80 C32.1975,80 10.666875,101.530625 10.666875,128 C10.666875,142.186625 16.8516999,154.954558 26.666875,163.749326 Z M96,297.082451 L96,293.413125 C96,284.549375 103.41375,277.333125 112.528125,277.333125 L143.471875,277.333125 C152.586875,277.333125 160,284.549375 160,293.41875 L160,297.082451 C169.815175,288.287683 176,275.51975 176,261.333125 C176,234.86375 154.469375,213.333125 128,213.333125 C101.530625,213.333125 80,234.86375 80,261.333125 C80,275.51975 86.1848249,288.287683 96,297.082451 Z M224,233.082451 L224,229.413125 C224,220.549375 231.41375,213.333125 240.528125,213.333125 L271.471875,213.333125 C280.586875,213.333125 288,220.549375 288,229.41875 L288,233.082451 C297.815175,224.287683 304,211.51975 304,197.333125 C304,170.86375 282.469375,149.333125 256,149.333125 C229.530625,149.333125 208,170.86375 208,197.333125 C208,211.51975 214.184825,224.287683 224,233.082451 Z M151.527037,158.859012 C150.151296,160.655413 149.333125,162.900362 149.333125,165.333125 C149.333125,171.21625 154.1175,176 160,176 C165.8825,176 170.666875,171.21625 170.666875,165.333125 C170.666875,159.45 165.8825,154.66625 160,154.66625 C156.590448,154.66625 153.550149,156.273205 151.596289,158.769565 C151.581636,158.788945 151.566831,158.808258 151.551875,158.8275 C151.543627,158.838044 151.535347,158.848548 151.527037,158.859012 Z M298.666875,96 C304.549375,96 309.333125,91.21625 309.33375,85.333125 C309.33375,79.45 304.55,74.66625 298.666875,74.66625 C292.78375,74.66625 288,79.450625 288,85.333125 C288,91.21625 292.784375,96 298.666875,96 Z M21.333125,272 C27.21625,272 32,267.21625 32,261.333125 C32,255.45 27.215625,250.66625 21.333125,250.66625 C15.45,250.66625 10.66625,255.45 10.66625,261.333125 C10.66625,267.21625 15.450625,272 21.333125,272 Z M240,309.333125 C245.8825,309.333125 250.666875,304.55 250.666875,298.666875 C250.666875,292.78375 245.8825,288 240,288 C234.1175,288 229.333125,292.783125 229.333125,298.66625 C229.333125,304.549375 234.1175,309.333125 240,309.333125 Z M277.333125,240.293125 L277.3325,240.293125 L277.3325,229.41875 C277.3325,226.431875 274.703125,224 271.47125,224 L240.5275,224 C237.295625,224 234.66625,226.431875 234.66625,229.41875 L234.66625,240.293125 C247.94125,246.90625 264.05875,246.90625 277.333125,240.293125 Z M149.333125,304.293125 L149.3325,304.293125 L149.3325,293.41875 C149.3325,290.431875 146.703125,288 143.47125,288 L112.5275,288 C109.295625,288 106.66625,290.431875 106.66625,293.41875 L106.66625,304.293125 C119.94125,310.90625 136.058125,310.90625 149.333125,304.293125 Z M80,170.96 L79.999375,170.96 L79.999375,160.085625 C79.999375,157.09875 77.37,154.666875 74.138125,154.666875 L43.194375,154.666875 C39.9625,154.666875 37.333125,157.09875 37.333125,160.085625 L37.333125,170.96 C50.608125,177.573125 66.725625,177.573125 80,170.96 Z M208,101.626875 L207.999375,101.626875 L207.999375,90.7525 C207.999375,87.765625 205.37,85.33375 202.138125,85.33375 L171.194375,85.33375 C167.9625,85.33375 165.333125,87.765625 165.333125,90.7525 L165.333125,101.626875 C178.608125,108.24 194.725625,108.24 208,101.626875 Z M58.666875,32 C64.549375,32 69.333125,27.21625 69.33375,21.333125 C69.33375,15.45 64.549375,10.66625 58.666875,10.66625 C52.78375,10.66625 48,15.450625 48,21.333125 C48,27.21625 52.784375,32 58.666875,32 Z" fill="#FFFFFF" stroke-linejoin="round"></path>
            <path d="M256,160 C244.234375,160 234.666875,169.568125 234.666875,181.333125 C234.666875,193.09875 244.235,202.66625 256,202.66625 C267.765625,202.66625 277.333125,193.098125 277.333125,181.333125 C277.333125,169.568125 267.765625,160 256,160 Z M256,192 C250.1175,192 245.333125,187.21625 245.333125,181.333125 C245.333125,175.450625 250.116875,170.66625 256,170.66625 C261.8825,170.66625 266.666875,175.45 266.666875,181.333125 C266.666875,187.21625 261.8825,192 256,192 Z" fill="#FF4A47"></path>
            <path d="M128,224 C116.234375,224 106.666875,233.568125 106.666875,245.333125 C106.666875,257.09875 116.235,266.66625 128,266.66625 C139.765,266.66625 149.333125,257.098125 149.333125,245.333125 C149.333125,233.568125 139.765625,224 128,224 Z M128,256 C122.1175,256 117.333125,251.21625 117.333125,245.333125 C117.333125,239.450625 122.116875,234.66625 128,234.66625 C133.8825,234.66625 138.666875,239.45 138.666875,245.333125 C138.666875,251.21625 133.8825,256 128,256 Z" fill="#FF4A47"></path>
            <path d="M58.666875,90.666875 C46.90125,90.666875 37.33375,100.235 37.33375,112 C37.33375,123.765 46.901875,133.333125 58.666875,133.333125 C70.4325,133.333125 80,123.765 80,112 C80,100.235 70.431875,90.666875 58.666875,90.666875 Z M58.666875,122.666875 C52.784375,122.666875 48,117.883125 48,112 C48,106.116875 52.78375,101.333125 58.666875,101.333125 C64.549375,101.333125 69.33375,106.116875 69.33375,112 C69.33375,117.883125 64.549375,122.666875 58.666875,122.666875 Z" fill="#FF4A47"></path>
            <path d="M186.666875,21.333125 C174.90125,21.333125 165.33375,30.90125 165.33375,42.66625 C165.33375,54.43125 174.901875,63.999375 186.666875,63.999375 C198.431875,63.999375 208,54.431875 208,42.666875 C208,30.901875 198.431875,21.333125 186.666875,21.333125 Z M186.666875,53.333125 C180.784375,53.333125 176,48.549375 176,42.66625 C176,36.78375 180.78375,31.999375 186.666875,31.999375 C192.55,31.999375 197.33375,36.783125 197.33375,42.66625 C197.333125,48.549375 192.549375,53.333125 186.666875,53.333125 Z" fill="#FF4A47"></path>
        </g>
    </g>
</svg>
